<?xml version="1.0" standalone="no"?>
<!DOCTYPE svg PUBLIC "-//W3C//DTD SVG 20010904//EN"
 "http://www.w3.org/TR/2001/REC-SVG-20010904/DTD/svg10.dtd">
<svg version="1.0" xmlns="http://www.w3.org/2000/svg"
 width="512.000000pt" height="512.000000pt" viewBox="0 0 512.000000 512.000000"
 preserveAspectRatio="xMidYMid meet">

<g transform="translate(0.000000,512.000000) scale(0.100000,-0.100000)"
fill="#000000" stroke="none">
<path d="M2330 5110 c-613 -63 -1153 -317 -1578 -741 -202 -200 -351 -409
-481 -670 -125 -250 -207 -514 -248 -794 -21 -148 -24 -525 -5 -660 54 -380
183 -741 370 -1039 l61 -97 -31 -85 c-34 -96 -192 -419 -304 -625 -63 -116
-74 -143 -74 -184 0 -99 76 -175 175 -175 38 0 75 15 218 89 293 153 631 301
686 301 11 0 57 -23 103 -52 279 -174 630 -300 988 -355 174 -26 538 -24 725
5 165 26 361 75 500 126 143 53 402 183 525 263 212 139 443 350 602 548 536
671 699 1581 427 2398 -129 388 -323 703 -612 996 -211 213 -414 359 -682 491
-259 127 -488 200 -757 241 -152 23 -473 33 -608 19z m495 -361 c741 -85 1403
-564 1731 -1254 140 -294 205 -593 205 -935 0 -492 -143 -924 -439 -1324 -96
-130 -308 -342 -438 -438 -398 -295 -830 -439 -1319 -440 -267 -1 -485 35
-729 118 -128 44 -353 154 -475 233 -51 33 -109 65 -129 72 -89 29 -260 -10
-499 -115 -57 -25 -103 -43 -103 -42 0 2 20 45 44 97 105 226 150 392 127 475
-6 22 -43 90 -82 150 -242 371 -362 776 -361 1219 2 599 222 1127 646 1551
487 486 1133 711 1821 633z"/>
<path d="M2091 3530 c-129 -18 -276 -80 -386 -163 -33 -25 -254 -241 -492
-479 -383 -385 -433 -438 -443 -476 -20 -76 11 -152 78 -194 69 -42 110 -34
472 96 179 64 348 119 376 122 33 4 69 1 105 -9 51 -15 77 -38 418 -364 199
-191 387 -365 417 -385 219 -149 554 -115 809 82 28 22 240 229 472 462 371
373 423 428 433 466 22 83 -13 161 -90 200 -24 12 -59 22 -77 22 -18 0 -182
-53 -365 -119 -183 -65 -355 -122 -381 -126 -29 -4 -70 -2 -100 6 -50 11 -65
25 -432 389 -359 357 -384 379 -455 413 -116 54 -236 73 -359 57z m187 -366
c25 -10 161 -138 412 -388 323 -321 384 -377 438 -404 88 -43 194 -65 297 -61
l85 4 -128 -128 c-70 -70 -153 -146 -186 -167 -113 -77 -263 -102 -344 -58
-23 13 -182 158 -353 323 -172 165 -342 326 -378 359 -122 108 -243 150 -413
144 l-98 -3 146 146 c148 148 215 199 308 231 64 22 165 23 214 2z"/>
</g>
</svg>
